# xmcd
#
# Track frame offsets: 
#        150
#        31970
#        59475
#        77708
#        114550
#        144440
#        179073
#        201390
#        222165
#        247018
#        273545
#
# Disc length: 4004 seconds
#
# Revision: 8
# Processed by: cddbd v1.5.2PL0 Copyright (c) Steve Scherf et al.
# Submitted via: ExactAudioCopy v0.99pb4
#
DISCID=ac0fa20b
DTITLE=Bob James - Dancing On The Water
DYEAR=2001
DGENRE=Jazz
TTITLE0=Alone Together (with Joe Sample)
TTITLE1=The Green Hour
TTITLE2=Bogie's Boogie
TTITLE3=Altair and Vega (with Keiko Matsui)
TTITLE4=Hum Drum
TTITLE5=Last Night When We Were Young (with Dave Holland)
TTITLE6=Dancing On The Water (with Chuck Loeb)
TTITLE7=Modesty
TTITLE8=Tapawingo (with Joe Sample)
TTITLE9=Autumn Nocturne (with Dave Holland)
TTITLE10=Duo Oto Subito (with Keiko Matsui)
EXTD=Original Release Date: February 13, 2001\nNumber of Discs: 1 \nWe
EXTD=a/Warner Brothers - ASIN: B00005899N YEAR: 2001
EXTT0=
EXTT1=
EXTT2=
EXTT3=
EXTT4=
EXTT5=
EXTT6=
EXTT7=
EXTT8=
EXTT9=
EXTT10=
PLAYORDER=
